name GIL02_slow1.mot
datacolumns 153
datarows 4
range 0.18333329 0.20833328
endheader

                time	           pelvis_tx	           pelvis_ty	           pelvis_tz	         pelvis_tilt	         pelvis_list	     pelvis_rotation	       hip_flexion_r	     hip_adduction_r	      hip_rotation_r	        knee_angle_r	       ankle_angle_r	    subtalar_angle_r	         mtp_angle_r	       hip_flexion_l	     hip_adduction_l	      hip_rotation_l	        knee_angle_l	       ankle_angle_l	    subtalar_angle_l	         mtp_angle_l	    lumbar_extension	      lumbar_bending	     lumbar_rotation	     ground_force_vx	     ground_force_vy	     ground_force_vz	     ground_force_px	     ground_force_py	     ground_force_pz	     ground_force_vx	     ground_force_vy	     ground_force_vz	     ground_force_px	     ground_force_py	     ground_force_pz	     ground_torque_x	     ground_torque_y	     ground_torque_z	     ground_torque_x	     ground_torque_y	     ground_torque_z	    ground_marker_px	    ground_marker_py	    ground_marker_pz	    ground_marker_px	    ground_marker_py	    ground_marker_pz	    ground_marker_px	    ground_marker_py	    ground_marker_pz	    ground_marker_px	    ground_marker_py	    ground_marker_pz	    ground_marker_px	    ground_marker_py	    ground_marker_pz	    ground_marker_px	    ground_marker_py	    ground_marker_pz	    ground_marker_px	    ground_marker_py	    ground_marker_pz	    ground_marker_px	    ground_marker_py	    ground_marker_pz	    ground_marker_px	    ground_marker_py	    ground_marker_pz	    ground_marker_px	    ground_marker_py	    ground_marker_pz	    ground_marker_px	    ground_marker_py	    ground_marker_pz	    ground_marker_px	    ground_marker_py	    ground_marker_pz	    ground_marker_px	    ground_marker_py	    ground_marker_pz	    ground_marker_px	    ground_marker_py	    ground_marker_pz	    ground_marker_px	    ground_marker_py	    ground_marker_pz	    ground_marker_px	    ground_marker_py	    ground_marker_pz	    ground_marker_px	    ground_marker_py	    ground_marker_pz	    ground_marker_px	    ground_marker_py	    ground_marker_pz	    ground_marker_px	    ground_marker_py	    ground_marker_pz	    ground_marker_px	    ground_marker_py	    ground_marker_pz	    ground_marker_px	    ground_marker_py	    ground_marker_pz	    ground_marker_px	    ground_marker_py	    ground_marker_pz	    ground_marker_px	    ground_marker_py	    ground_marker_pz	    ground_marker_px	    ground_marker_py	    ground_marker_pz	    ground_marker_px	    ground_marker_py	    ground_marker_pz	    ground_marker_px	    ground_marker_py	    ground_marker_pz	    ground_marker_px	    ground_marker_py	    ground_marker_pz	    ground_marker_px	    ground_marker_py	    ground_marker_pz	    ground_marker_px	    ground_marker_py	    ground_marker_pz	    ground_marker_px	    ground_marker_py	    ground_marker_pz	    ground_marker_px	    ground_marker_py	    ground_marker_pz	    ground_marker_px	    ground_marker_py	    ground_marker_pz	    ground_marker_px	    ground_marker_py	    ground_marker_pz	    ground_marker_px	    ground_marker_py	    ground_marker_pz	    ground_marker_px	    ground_marker_py	    ground_marker_pz	    ground_marker_px	    ground_marker_py	    ground_marker_pz	    ground_marker_px	    ground_marker_py	    ground_marker_pz	
          0.18333329	          0.72824836	          0.95528972	         -0.20475955	         -0.95567322	         -1.81975532	          0.08188344	         14.52159691	          1.68610132	          6.13650799	        -11.71117783	         -1.25875103	          0.00000000	          0.00000000	         -3.90680599	         -1.94125426	         -1.58003271	        -37.02227020	        -15.50891018	          0.00000000	          0.00000000	        -10.99517727	          6.24801302	         -1.62510896	        -52.46791292	        587.32982289	        -23.10529668	          0.76178436	          0.00000000	         -0.14936844	          0.00000000	          0.00000000	          0.00000000	          1.14897693	          0.00000000	         -0.19760445	          0.00000000	         -1.16829517	          0.00000000	          0.00000000	          0.00000000	          0.00000000	          0.64750361	          0.89383298	         -0.19758689	          0.64106101	          0.87220484	         -0.12621841	          0.63978058	          0.86759764	         -0.27657175	          0.73695934	          0.47431609	         -0.12689173	          0.60402000	          0.44788146	         -0.27768281	          0.74596459	          0.06945985	         -0.15556534	          0.33980972	          0.15300003	         -0.26685807	          0.72824836	          0.95528972	         -0.20475955	          0.72924864	          0.95888889	         -0.08730092	          0.72724801	          0.95169055	         -0.32221818	          0.54097021	          0.99917299	         -0.17099784	          0.54735357	          0.99551231	         -0.25672927	          0.74393451	          0.47589898	         -0.06883063	          0.60209960	          0.44819856	         -0.33565012	          0.70733440	          0.46924970	         -0.18034855	          0.61125654	          0.42347312	         -0.22164796	          0.73474479	          0.06649914	         -0.11728545	          0.32072303	          0.16899982	         -0.29686978	          0.75533378	          0.08516928	         -0.18293998	          0.35186359	          0.16158342	         -0.23954317	          0.54960501	          1.42542326	         -0.18523148	          0.67224729	          1.34143937	         -0.13639075	          0.67644918	          1.34864354	         -0.23834038	          0.65761489	          1.35344946	         -0.18467391	          0.73076147	          1.18683910	         -0.20508029	          0.76477826	          0.57551634	          0.00653224	          0.77182162	          0.50966322	         -0.29860350	          0.76588261	          0.64491415	         -0.05532183	          0.70329082	          0.57311577	         -0.32501167	          0.77560824	          0.55947775	         -0.08279406	          0.67394078	          0.48969477	         -0.32196495	          0.75372607	          0.19410154	         -0.02184096	          0.41578820	          0.26780996	         -0.38678238	          0.74186277	          0.16521397	         -0.09663831	          0.38892972	          0.24252898	         -0.31354418	          0.86969805	          0.03986817	         -0.13856985	          0.38447520	          0.04312582	         -0.27025717	
          0.19166662	          0.73494512	          0.95578766	         -0.20388764	         -0.91895580	         -1.85875428	          0.17046478	         13.94664383	          1.73988760	          6.11642075	        -11.55710983	         -0.87508202	          0.00000000	          0.00000000	         -2.79789734	         -2.18642664	         -1.90200877	        -39.04783630	        -18.22216415	          0.00000000	          0.00000000	        -10.90588188	          6.19494867	         -1.22600400	        -50.95573669	        603.49591011	        -22.65354092	          0.76188519	          0.00000000	         -0.14946503	          0.00000000	          0.00000000	          0.00000000	          1.15192969	          0.00000000	         -0.19868408	          0.00000000	         -1.13603687	          0.00000000	          0.00000000	          0.00000000	          0.00000000	          0.65428233	          0.89423549	         -0.19652671	          0.64793736	          0.87267619	         -0.12517568	          0.64641029	          0.86802053	         -0.27552521	          0.73997545	          0.47430226	         -0.12619527	          0.61898994	          0.44742203	         -0.27831176	          0.74614704	          0.06941394	         -0.15564756	          0.35061598	          0.15695770	         -0.26776427	          0.73494512	          0.95578766	         -0.20388764	          0.73613846	          0.95942587	         -0.08639651	          0.73375177	          0.95214945	         -0.32137877	          0.54782027	          0.99966222	         -0.16955279	          0.55378360	          0.99582177	         -0.25529352	          0.74703622	          0.47578499	         -0.06814186	          0.61662412	          0.44796017	         -0.33626100	          0.71088475	          0.46971729	         -0.17931136	          0.62732810	          0.42247894	         -0.22173919	          0.73490077	          0.06645850	         -0.11737503	          0.33188632	          0.17316908	         -0.29788721	          0.75526172	          0.08503091	         -0.18309623	          0.36292806	          0.16515417	         -0.24026857	          0.55594313	          1.42587411	         -0.18348904	          0.67969817	          1.34184706	         -0.13540436	          0.68298376	          1.34905684	         -0.23707275	          0.66432619	          1.35403597	         -0.18350019	          0.73799193	          1.18739378	         -0.20447429	          0.76892078	          0.57527483	          0.00734320	          0.78555030	          0.51132315	         -0.30024889	          0.77066237	          0.64499390	         -0.05448462	          0.71585077	          0.57376719	         -0.32598066	          0.77974117	          0.55964464	         -0.08177543	          0.68785977	          0.48962998	         -0.32265168	          0.75476891	          0.19367605	         -0.02160775	          0.42861059	          0.27010509	         -0.38762009	          0.74292660	          0.16482219	         -0.09656993	          0.40214333	          0.24479146	         -0.31441003	          0.86973780	          0.03976590	         -0.13860483	          0.38945428	          0.04447467	         -0.27024153	
          0.19999996	          0.74154365	          0.95622933	         -0.20305996	         -0.85598946	         -1.90723884	          0.24868770	         13.32910156	          1.80624938	          6.17096615	        -11.36234856	         -0.49466488	          0.00000000	          0.00000000	         -1.70323277	         -2.43541741	         -2.18322921	        -41.01512527	        -20.27076912	          0.00000000	          0.00000000	        -10.96068859	          6.28269434	         -0.99042588	        -49.25419114	        619.30679057	        -22.57975510	          0.76217456	          0.00000000	         -0.14945163	          0.00000000	          0.00000000	          0.00000000	          1.15459656	          0.00000000	         -0.19967207	          0.00000000	         -1.09787109	          0.00000000	          0.00000000	          0.00000000	          0.00000000	          0.66042447	          0.89406013	         -0.19521084	          0.65474313	          0.87306726	         -0.12417275	          0.65299267	          0.86833155	         -0.27451733	          0.74279922	          0.47425374	         -0.12551644	          0.63402152	          0.44712955	         -0.27895653	          0.74626368	          0.06936207	         -0.15572925	          0.36187375	          0.16077977	         -0.26852784	          0.74154365	          0.95622933	         -0.20305996	          0.74291259	          0.95993280	         -0.08548424	          0.74017465	          0.95252579	         -0.32063568	          0.55452496	          1.00004375	         -0.16814467	          0.56007618	          0.99596775	         -0.25389647	          0.75001127	          0.47565061	         -0.06747951	          0.63125020	          0.44786489	         -0.33688563	          0.71305692	          0.47058025	         -0.17849113	          0.64247811	          0.42247108	         -0.22195101	          0.73503059	          0.06640977	         -0.11745259	          0.34352094	          0.17711936	         -0.29881302	          0.75518554	          0.08501635	         -0.18319130	          0.37435776	          0.16849606	         -0.24102390	          0.56216747	          1.42643237	         -0.18170306	          0.68695146	          1.34235740	         -0.13432321	          0.68970776	          1.34975719	         -0.23609674	          0.67081541	          1.35448277	         -0.18242513	          0.74537140	          1.18820477	         -0.20399988	          0.77304488	          0.57508838	          0.00809378	          0.79926264	          0.51325017	         -0.30177876	          0.77566016	          0.64503062	         -0.05392520	          0.72862285	          0.57452190	         -0.32702386	          0.78345186	          0.55958909	         -0.08118826	          0.70152658	          0.49016422	         -0.32340306	          0.75583136	          0.19325203	         -0.02137270	          0.44189394	          0.27216455	         -0.38844022	          0.74341089	          0.16459854	         -0.09636909	          0.41560394	          0.24657047	         -0.31559381	          0.86978525	          0.03967631	         -0.13863844	          0.39582226	          0.04624584	         -0.27053118	
          0.20833328	          0.74804318	          0.95662796	         -0.20225865	         -0.77096844	         -1.95628953	          0.32463008	         12.67696571	          1.87335217	          6.28187561	        -11.13453388	         -0.11993685	          0.00000000	          0.00000000	         -0.61897755	         -2.67774844	         -2.42237234	        -42.92022705	        -21.51444244	          0.00000000	          0.00000000	        -11.23978424	          6.32766342	         -1.25530088	        -47.70717213	        631.98071751	        -23.01714777	          0.76276373	          0.00000000	         -0.14930844	          0.00000000	          0.00000000	          0.00000000	          1.15702893	          0.00000000	         -0.20056226	          0.00000000	         -1.07343726	          0.00000000	          0.00000000	          0.00000000	          0.00000000	          0.66638279	          0.89380050	         -0.19377163	          0.66147941	          0.87338394	         -0.12319799	          0.65951312	          0.86856419	         -0.27353722	          0.74545979	          0.47417966	         -0.12484228	          0.64908564	          0.44702035	         -0.27960044	          0.74632221	          0.06931611	         -0.15581565	          0.37355456	          0.16444536	         -0.26910883	          0.74804318	          0.95662796	         -0.20225865	          0.74958271	          0.96040148	         -0.08455311	          0.74650359	          0.95285451	         -0.31996417	          0.56106210	          1.00034189	         -0.16679901	          0.56625473	          0.99597979	         -0.25256851	          0.75287449	          0.47550055	         -0.06682912	          0.64594382	          0.44793096	         -0.33750811	          0.71556050	          0.47166818	         -0.17836404	          0.65742606	          0.42260057	         -0.22240523	          0.73515576	          0.06636256	         -0.11751960	          0.35557562	          0.18084456	         -0.29958546	          0.75512803	          0.08505407	         -0.18326935	          0.38563836	          0.17181806	         -0.24168943	          0.56882608	          1.42699170	         -0.18036766	          0.69299728	          1.34284806	         -0.13301882	          0.69614559	          1.35021520	         -0.23555771	          0.67707056	          1.35479355	         -0.18148084	          0.75128567	          1.18852317	         -0.20275739	          0.77713495	          0.57495189	          0.00878839	          0.81293309	          0.51549047	         -0.30319074	          0.78065497	          0.64490765	         -0.05333709	          0.74118131	          0.57550871	         -0.32811299	          0.78727055	          0.55939579	         -0.08089224	          0.71510744	          0.49090371	         -0.32426026	          0.75697178	          0.19282396	         -0.02115730	          0.45554191	          0.27405354	         -0.38919595	          0.74380863	          0.16459265	         -0.09616280	          0.42830041	          0.24894767	         -0.31625959	          0.86984366	          0.03959931	         -0.13867703	          0.40383655	          0.04842116	         -0.27116743	
